<svg width="141" height="52" viewBox="0 0 141 52" fill="none" xmlns="http://www.w3.org/2000/svg">
<g filter="url(#filter0_d_7_57)">
<rect x="4" y="0.00244141" width="44" height="44" rx="16" fill="#40BFFF"/>
<path fill-rule="evenodd" clip-rule="evenodd" d="M35.0619 20.274C36.0165 21.2286 36.0165 22.7763 35.0619 23.7309L27.7285 31.0643C26.7739 32.0189 25.2262 32.0189 24.2716 31.0643L16.9382 23.7309C15.9836 22.7763 15.9836 21.2286 16.9382 20.274L24.2716 12.9406C25.2262 11.986 26.7739 11.986 27.7285 12.9406L35.0619 20.274ZM26.0001 18.1261L22.1237 22.0024L26.0001 25.8788L29.8764 22.0024L26.0001 18.1261Z" fill="white"/>
<path d="M58.5094 19.6102V22.1662H62.6314V24.5422H58.5094V27.3142H63.1714V29.7802H55.4314V17.1442H63.1714V19.6102H58.5094ZM72.9097 22.1842V24.7402H64.9897V22.1842H72.9097ZM75.0891 23.4442C75.0891 22.1962 75.3591 21.0862 75.8991 20.1142C76.4391 19.1302 77.1891 18.3682 78.1491 17.8282C79.1211 17.2762 80.2191 17.0002 81.4431 17.0002C82.9431 17.0002 84.2271 17.3962 85.2951 18.1882C86.3631 18.9802 87.0771 20.0602 87.4371 21.4282H84.0531C83.8011 20.9002 83.4411 20.4982 82.9731 20.2222C82.5171 19.9462 81.9951 19.8082 81.4071 19.8082C80.4591 19.8082 79.6911 20.1382 79.1031 20.7982C78.5151 21.4582 78.2211 22.3402 78.2211 23.4442C78.2211 24.5482 78.5151 25.4302 79.1031 26.0902C79.6911 26.7502 80.4591 27.0802 81.4071 27.0802C81.9951 27.0802 82.5171 26.9422 82.9731 26.6662C83.4411 26.3902 83.8011 25.9882 84.0531 25.4602H87.4371C87.0771 26.8282 86.3631 27.9082 85.2951 28.7002C84.2271 29.4802 82.9431 29.8702 81.4431 29.8702C80.2191 29.8702 79.1211 29.6002 78.1491 29.0602C77.1891 28.5082 76.4391 27.7462 75.8991 26.7742C75.3591 25.8022 75.0891 24.6922 75.0891 23.4442ZM93.8941 29.9242C92.9101 29.9242 92.0221 29.7142 91.2301 29.2942C90.4501 28.8742 89.8321 28.2742 89.3761 27.4942C88.9321 26.7142 88.7101 25.8022 88.7101 24.7582C88.7101 23.7262 88.9381 22.8202 89.3941 22.0402C89.8501 21.2482 90.4741 20.6422 91.2661 20.2222C92.0581 19.8022 92.9461 19.5922 93.9301 19.5922C94.9141 19.5922 95.8021 19.8022 96.5941 20.2222C97.3861 20.6422 98.0101 21.2482 98.4661 22.0402C98.9221 22.8202 99.1501 23.7262 99.1501 24.7582C99.1501 25.7902 98.9161 26.7022 98.4481 27.4942C97.9921 28.2742 97.3621 28.8742 96.5581 29.2942C95.7661 29.7142 94.8781 29.9242 93.8941 29.9242ZM93.8941 27.2602C94.4821 27.2602 94.9801 27.0442 95.3881 26.6122C95.8081 26.1802 96.0181 25.5622 96.0181 24.7582C96.0181 23.9542 95.8141 23.3362 95.4061 22.9042C95.0101 22.4722 94.5181 22.2562 93.9301 22.2562C93.3301 22.2562 92.8321 22.4722 92.4361 22.9042C92.0401 23.3242 91.8421 23.9422 91.8421 24.7582C91.8421 25.5622 92.0341 26.1802 92.4181 26.6122C92.8141 27.0442 93.3061 27.2602 93.8941 27.2602ZM113.599 19.6282C114.847 19.6282 115.837 20.0062 116.569 20.7622C117.313 21.5182 117.685 22.5682 117.685 23.9122V29.7802H114.625V24.3262C114.625 23.6782 114.451 23.1802 114.103 22.8322C113.767 22.4722 113.299 22.2922 112.699 22.2922C112.099 22.2922 111.625 22.4722 111.277 22.8322C110.941 23.1802 110.773 23.6782 110.773 24.3262V29.7802H107.713V24.3262C107.713 23.6782 107.539 23.1802 107.191 22.8322C106.855 22.4722 106.387 22.2922 105.787 22.2922C105.187 22.2922 104.713 22.4722 104.365 22.8322C104.029 23.1802 103.861 23.6782 103.861 24.3262V29.7802H100.783V19.7362H103.861V20.9962C104.173 20.5762 104.581 20.2462 105.085 20.0062C105.589 19.7542 106.159 19.6282 106.795 19.6282C107.551 19.6282 108.223 19.7902 108.811 20.1142C109.411 20.4382 109.879 20.9002 110.215 21.5002C110.563 20.9482 111.037 20.4982 111.637 20.1502C112.237 19.8022 112.891 19.6282 113.599 19.6282ZM132.654 19.6282C133.902 19.6282 134.892 20.0062 135.624 20.7622C136.368 21.5182 136.74 22.5682 136.74 23.9122V29.7802H133.68V24.3262C133.68 23.6782 133.506 23.1802 133.158 22.8322C132.822 22.4722 132.354 22.2922 131.754 22.2922C131.154 22.2922 130.68 22.4722 130.332 22.8322C129.996 23.1802 129.828 23.6782 129.828 24.3262V29.7802H126.768V24.3262C126.768 23.6782 126.594 23.1802 126.246 22.8322C125.91 22.4722 125.442 22.2922 124.842 22.2922C124.242 22.2922 123.768 22.4722 123.42 22.8322C123.084 23.1802 122.916 23.6782 122.916 24.3262V29.7802H119.838V19.7362H122.916V20.9962C123.228 20.5762 123.636 20.2462 124.14 20.0062C124.644 19.7542 125.214 19.6282 125.85 19.6282C126.606 19.6282 127.278 19.7902 127.866 20.1142C128.466 20.4382 128.934 20.9002 129.27 21.5002C129.618 20.9482 130.092 20.4982 130.692 20.1502C131.292 19.8022 131.946 19.6282 132.654 19.6282Z" fill="#22262A"/>
</g>
<defs>
<filter id="filter0_d_7_57" x="0" y="0.00244141" width="140.74" height="52" filterUnits="userSpaceOnUse" color-interpolation-filters="sRGB">
<feFlood flood-opacity="0" result="BackgroundImageFix"/>
<feColorMatrix in="SourceAlpha" type="matrix" values="0 0 0 0 0 0 0 0 0 0 0 0 0 0 0 0 0 0 127 0" result="hardAlpha"/>
<feOffset dy="4"/>
<feGaussianBlur stdDeviation="2"/>
<feComposite in2="hardAlpha" operator="out"/>
<feColorMatrix type="matrix" values="0 0 0 0 0 0 0 0 0 0 0 0 0 0 0 0 0 0 0.25 0"/>
<feBlend mode="normal" in2="BackgroundImageFix" result="effect1_dropShadow_7_57"/>
<feBlend mode="normal" in="SourceGraphic" in2="effect1_dropShadow_7_57" result="shape"/>
</filter>
</defs>
</svg>
